<svg width="58" height="10" viewBox="0 0 58 10" fill="none" xmlns="http://www.w3.org/2000/svg">
<mask id="path-1-outside-1_16_73" maskUnits="userSpaceOnUse" x="-1" y="-1" width="61" height="13" fill="black">
<rect fill="white" x="-1" y="-1" width="61" height="13"/>
<path d="M1.16406 8.94727L1.03516 2.84766L0.519531 2.81836L0.390625 1.50586L5.98047 0.914062L5.95117 3.02344L2.81055 2.94727L2.83398 4.3125L4.94922 4.54688L4.79688 5.73047L2.71094 6.01172L2.60547 8.56055L1.16406 8.94727ZM5.29492 0.814453L7.19922 1.04297L6.81836 6.60352L10.1113 6.26953L10.2637 8.61328L4.99023 8.81836L5.29492 0.814453ZM10.2461 1.8457L12.127 1.63477V5.67773C12.1074 6.21289 12.4492 6.48828 13.1523 6.50391C13.875 6.53906 14.2441 6.06641 14.2598 5.08594L14.2129 1.27734L16.0879 1.74023L16.0352 5.39648C16.0352 7.45508 15.0312 8.41602 13.0234 8.2793C11.2578 8.2793 10.3398 7.42969 10.2695 5.73047L10.2461 1.8457ZM16.2344 2.9707V1.14258L22.8203 0.679688L22.7676 2.66602L20.2246 2.87109L20.6875 8.43164L18.3672 8.73633L18.4961 2.89453L16.2344 2.9707ZM22.375 2.9707V1.14258L28.9609 0.679688L28.9082 2.66602L26.3652 2.87109L26.8281 8.43164L24.5078 8.73633L24.6367 2.89453L22.375 2.9707ZM34.1289 4.88086L35.2891 6.08789C34.5508 7.15039 33.5039 7.68359 32.1484 7.6875C29.9922 7.6875 28.9023 6.70898 28.8789 4.75195C28.8945 2.61133 29.8633 1.53906 31.7852 1.53516C33.3125 1.5625 34.2148 2.22266 34.4922 3.51562L31.7148 5.75391C32.8438 5.87891 33.6484 5.58789 34.1289 4.88086ZM30.7949 5.09766L32.793 3.54492C32.1836 3.01758 31.5703 2.96289 30.9531 3.38086C30.3945 3.9082 30.3418 4.48047 30.7949 5.09766ZM37.4277 4.69922C38.4121 4.46875 38.9102 4.11914 38.9219 3.65039C38.8984 3.36914 38.791 3.17969 38.5996 3.08203C38.4121 2.98047 38.0234 2.95898 37.4336 3.01758L37.4277 4.69922ZM38.0723 6.25195C37.8535 6.31445 37.6211 6.36914 37.375 6.41602L37.1992 8.80664L36.0215 8.7832L35.6699 3.17578L34.8262 3.23438L34.7793 1.25977C37.2949 1.03711 38.8711 1.1543 39.5078 1.61133C40.1484 2.06836 40.4707 2.76562 40.4746 3.70312C40.4199 4.60156 39.9922 5.29297 39.1914 5.77734L40.7617 8.07422L38.9336 8.76562L38.0723 6.25195ZM40.3867 7.92188L41.2656 1.53516L42.8887 1.40625L43.2988 4.4707L44.1191 0.791016L45.7188 0.585938L47.1133 9.84961L44.8223 9.56836L44.2012 4.83398L43.1699 7.79297L42.5781 5.29688L41.9336 8.33203L40.3867 7.92188ZM49.832 1.74023C50.7383 1.74023 51.5117 2.05078 52.1523 2.67188C52.793 3.28906 53.1133 4.0332 53.1133 4.9043C53.1133 5.7793 52.793 6.52734 52.1523 7.14844C51.5117 7.76562 50.7383 8.07422 49.832 8.07422C48.9258 8.07422 48.1523 7.76562 47.5117 7.14844C46.8711 6.52734 46.5508 5.7793 46.5508 4.9043C46.5508 4.0332 46.8711 3.28906 47.5117 2.67188C48.1523 2.05078 48.9258 1.74023 49.832 1.74023ZM51.9414 4.18359C51.9023 4.36719 51.8105 4.52734 51.666 4.66406C51.4668 4.85156 51.2285 4.94531 50.9512 4.94531C50.6738 4.94531 50.4355 4.85352 50.2363 4.66992C50.041 4.48242 49.9434 4.25781 49.9434 3.99609C49.9434 3.73438 50.041 3.51172 50.2363 3.32812C50.4355 3.14453 50.6738 3.05273 50.9512 3.05273C51.0059 3.05273 51.0566 3.05664 51.1035 3.06445C50.8887 2.95508 50.6504 2.90039 50.3887 2.90039C49.9551 2.90039 49.584 3.05078 49.2754 3.35156C48.9707 3.64844 48.8184 4.00781 48.8184 4.42969C48.8184 4.85156 48.9707 5.21094 49.2754 5.50781C49.584 5.80469 49.9551 5.95312 50.3887 5.95312C50.8223 5.95312 51.1914 5.80469 51.4961 5.50781C51.8047 5.21094 51.959 4.85156 51.959 4.42969C51.959 4.34375 51.9531 4.26172 51.9414 4.18359ZM52.9375 8.33203L53.0898 2.25586L52.627 2.23242V1.22461L54.6367 1.30664L56.1016 5.26758L56.4121 0.919922L57.9824 0.738281L57.4375 9.5918L55.791 9.28711L54.4258 5.37305V8.48438L52.9375 8.33203Z"/>
</mask>
<path d="M1.16406 8.94727L1.03516 2.84766L0.519531 2.81836L0.390625 1.50586L5.98047 0.914062L5.95117 3.02344L2.81055 2.94727L2.83398 4.3125L4.94922 4.54688L4.79688 5.73047L2.71094 6.01172L2.60547 8.56055L1.16406 8.94727ZM5.29492 0.814453L7.19922 1.04297L6.81836 6.60352L10.1113 6.26953L10.2637 8.61328L4.99023 8.81836L5.29492 0.814453ZM10.2461 1.8457L12.127 1.63477V5.67773C12.1074 6.21289 12.4492 6.48828 13.1523 6.50391C13.875 6.53906 14.2441 6.06641 14.2598 5.08594L14.2129 1.27734L16.0879 1.74023L16.0352 5.39648C16.0352 7.45508 15.0312 8.41602 13.0234 8.2793C11.2578 8.2793 10.3398 7.42969 10.2695 5.73047L10.2461 1.8457ZM16.2344 2.9707V1.14258L22.8203 0.679688L22.7676 2.66602L20.2246 2.87109L20.6875 8.43164L18.3672 8.73633L18.4961 2.89453L16.2344 2.9707ZM22.375 2.9707V1.14258L28.9609 0.679688L28.9082 2.66602L26.3652 2.87109L26.8281 8.43164L24.5078 8.73633L24.6367 2.89453L22.375 2.9707ZM34.1289 4.88086L35.2891 6.08789C34.5508 7.15039 33.5039 7.68359 32.1484 7.6875C29.9922 7.6875 28.9023 6.70898 28.8789 4.75195C28.8945 2.61133 29.8633 1.53906 31.7852 1.53516C33.3125 1.5625 34.2148 2.22266 34.4922 3.51562L31.7148 5.75391C32.8438 5.87891 33.6484 5.58789 34.1289 4.88086ZM30.7949 5.09766L32.793 3.54492C32.1836 3.01758 31.5703 2.96289 30.9531 3.38086C30.3945 3.9082 30.3418 4.48047 30.7949 5.09766ZM37.4277 4.69922C38.4121 4.46875 38.9102 4.11914 38.9219 3.65039C38.8984 3.36914 38.791 3.17969 38.5996 3.08203C38.4121 2.98047 38.0234 2.95898 37.4336 3.01758L37.4277 4.69922ZM38.0723 6.25195C37.8535 6.31445 37.6211 6.36914 37.375 6.41602L37.1992 8.80664L36.0215 8.7832L35.6699 3.17578L34.8262 3.23438L34.7793 1.25977C37.2949 1.03711 38.8711 1.1543 39.5078 1.61133C40.1484 2.06836 40.4707 2.76562 40.4746 3.70312C40.4199 4.60156 39.9922 5.29297 39.1914 5.77734L40.7617 8.07422L38.9336 8.76562L38.0723 6.25195ZM40.3867 7.92188L41.2656 1.53516L42.8887 1.40625L43.2988 4.4707L44.1191 0.791016L45.7188 0.585938L47.1133 9.84961L44.8223 9.56836L44.2012 4.83398L43.1699 7.79297L42.5781 5.29688L41.9336 8.33203L40.3867 7.92188ZM49.832 1.74023C50.7383 1.74023 51.5117 2.05078 52.1523 2.67188C52.793 3.28906 53.1133 4.0332 53.1133 4.9043C53.1133 5.7793 52.793 6.52734 52.1523 7.14844C51.5117 7.76562 50.7383 8.07422 49.832 8.07422C48.9258 8.07422 48.1523 7.76562 47.5117 7.14844C46.8711 6.52734 46.5508 5.7793 46.5508 4.9043C46.5508 4.0332 46.8711 3.28906 47.5117 2.67188C48.1523 2.05078 48.9258 1.74023 49.832 1.74023ZM51.9414 4.18359C51.9023 4.36719 51.8105 4.52734 51.666 4.66406C51.4668 4.85156 51.2285 4.94531 50.9512 4.94531C50.6738 4.94531 50.4355 4.85352 50.2363 4.66992C50.041 4.48242 49.9434 4.25781 49.9434 3.99609C49.9434 3.73438 50.041 3.51172 50.2363 3.32812C50.4355 3.14453 50.6738 3.05273 50.9512 3.05273C51.0059 3.05273 51.0566 3.05664 51.1035 3.06445C50.8887 2.95508 50.6504 2.90039 50.3887 2.90039C49.9551 2.90039 49.584 3.05078 49.2754 3.35156C48.9707 3.64844 48.8184 4.00781 48.8184 4.42969C48.8184 4.85156 48.9707 5.21094 49.2754 5.50781C49.584 5.80469 49.9551 5.95312 50.3887 5.95312C50.8223 5.95312 51.1914 5.80469 51.4961 5.50781C51.8047 5.21094 51.959 4.85156 51.959 4.42969C51.959 4.34375 51.9531 4.26172 51.9414 4.18359ZM52.9375 8.33203L53.0898 2.25586L52.627 2.23242V1.22461L54.6367 1.30664L56.1016 5.26758L56.4121 0.919922L57.9824 0.738281L57.4375 9.5918L55.791 9.28711L54.4258 5.37305V8.48438L52.9375 8.33203Z" fill="#FFE031"/>
<path d="M1.16406 8.94727L0.164286 8.96839L0.191236 10.2436L1.42319 9.91311L1.16406 8.94727ZM1.03516 2.84766L2.03493 2.82653L2.01539 1.90174L1.09188 1.84927L1.03516 2.84766ZM0.519531 2.81836L-0.47568 2.9161L-0.391994 3.76818L0.462805 3.81675L0.519531 2.81836ZM0.390625 1.50586L0.285343 0.511417L-0.701593 0.615904L-0.604587 1.6036L0.390625 1.50586ZM5.98047 0.914062L6.98037 0.92795L6.99602 -0.199043L5.87519 -0.0803799L5.98047 0.914062ZM5.95117 3.02344L5.92693 4.02314L6.93704 4.04764L6.95108 3.03733L5.95117 3.02344ZM2.81055 2.94727L2.83479 1.94756L1.7928 1.92229L1.81069 2.96443L2.81055 2.94727ZM2.83398 4.3125L1.83413 4.32966L1.84924 5.20951L2.72386 5.30642L2.83398 4.3125ZM4.94922 4.54688L5.94104 4.67453L6.07097 3.66505L5.05935 3.55296L4.94922 4.54688ZM4.79688 5.73047L4.9305 6.7215L5.69076 6.61899L5.78869 5.85813L4.79688 5.73047ZM2.71094 6.01172L2.57732 5.02069L1.74645 5.13271L1.71179 5.97037L2.71094 6.01172ZM2.60547 8.56055L2.8646 9.52639L3.57424 9.336L3.60461 8.60189L2.60547 8.56055ZM2.16384 8.92614L2.03493 2.82653L0.0353795 2.86879L0.164286 8.96839L2.16384 8.92614ZM1.09188 1.84927L0.576258 1.81997L0.462805 3.81675L0.97843 3.84605L1.09188 1.84927ZM1.51474 2.72062L1.38584 1.40812L-0.604587 1.6036L-0.47568 2.9161L1.51474 2.72062ZM0.495907 2.5003L6.08575 1.9085L5.87519 -0.0803799L0.285343 0.511417L0.495907 2.5003ZM4.98057 0.900175L4.95127 3.00955L6.95108 3.03733L6.98037 0.92795L4.98057 0.900175ZM5.97542 2.02373L2.83479 1.94756L2.7863 3.94697L5.92693 4.02314L5.97542 2.02373ZM1.81069 2.96443L1.83413 4.32966L3.83384 4.29534L3.8104 2.9301L1.81069 2.96443ZM2.72386 5.30642L4.83909 5.54079L5.05935 3.55296L2.94411 3.31858L2.72386 5.30642ZM3.9574 4.41922L3.80506 5.60281L5.78869 5.85813L5.94104 4.67453L3.9574 4.41922ZM4.66325 4.73944L2.57732 5.02069L2.84456 7.00275L4.9305 6.7215L4.66325 4.73944ZM1.71179 5.97037L1.60632 8.5192L3.60461 8.60189L3.71008 6.05306L1.71179 5.97037ZM2.34634 7.5947L0.904934 7.98142L1.42319 9.91311L2.8646 9.52639L2.34634 7.5947ZM5.29492 0.814453L5.41407 -0.178424L4.33691 -0.307682L4.29565 0.776413L5.29492 0.814453ZM7.19922 1.04297L8.19688 1.1113L8.26181 0.163306L7.31836 0.0500919L7.19922 1.04297ZM6.81836 6.60352L5.8207 6.53518L5.73968 7.71805L6.91927 7.59841L6.81836 6.60352ZM10.1113 6.26953L11.1092 6.20467L11.042 5.17001L10.0104 5.27464L10.1113 6.26953ZM10.2637 8.61328L10.3025 9.61253L11.3281 9.57264L11.2616 8.54842L10.2637 8.61328ZM4.99023 8.81836L3.99096 8.78032L3.94987 9.85957L5.02909 9.8176L4.99023 8.81836ZM5.17578 1.80733L7.08007 2.03585L7.31836 0.0500919L5.41407 -0.178424L5.17578 1.80733ZM6.20156 0.974636L5.8207 6.53518L7.81602 6.67185L8.19688 1.1113L6.20156 0.974636ZM6.91927 7.59841L10.2122 7.26443L10.0104 5.27464L6.71745 5.60862L6.91927 7.59841ZM9.11343 6.33439L9.26578 8.67814L11.2616 8.54842L11.1092 6.20467L9.11343 6.33439ZM10.2248 7.61404L4.95137 7.81911L5.02909 9.8176L10.3025 9.61253L10.2248 7.61404ZM5.98951 8.8564L6.2942 0.852493L4.29565 0.776413L3.99096 8.78032L5.98951 8.8564ZM10.2461 1.8457L10.1346 0.851933L9.24068 0.95219L9.24611 1.85174L10.2461 1.8457ZM12.127 1.63477H13.127V0.516347L12.0155 0.640996L12.127 1.63477ZM12.127 5.67773L13.1263 5.71421L13.127 5.69598V5.67773H12.127ZM13.1523 6.50391L13.2009 5.50509L13.1878 5.50445L13.1746 5.50415L13.1523 6.50391ZM14.2598 5.08594L15.2596 5.10187L15.2599 5.08775L15.2597 5.07363L14.2598 5.08594ZM14.2129 1.27734L14.4526 0.306492L13.1971 -0.00346458L13.213 1.28965L14.2129 1.27734ZM16.0879 1.74023L17.0878 1.75466L17.0992 0.959891L16.3276 0.769382L16.0879 1.74023ZM16.0352 5.39648L15.0353 5.38206L15.0352 5.38927V5.39648H16.0352ZM13.0234 8.2793L13.0914 7.28161L13.0574 7.2793H13.0234V8.2793ZM10.2695 5.73047L9.26955 5.7365L9.26966 5.75416L9.27039 5.77181L10.2695 5.73047ZM10.3575 2.83947L12.2384 2.62854L12.0155 0.640996L10.1346 0.851933L10.3575 2.83947ZM11.127 1.63477V5.67773H13.127V1.63477H11.127ZM11.1276 5.64126C11.1092 6.14642 11.27 6.68466 11.7412 7.06434C12.1601 7.40183 12.6813 7.49369 13.1301 7.50366L13.1746 5.50415C13.0588 5.50158 12.9919 5.48873 12.961 5.48014C12.9315 5.4719 12.9538 5.4729 12.9961 5.50695C13.0174 5.52418 13.0404 5.54716 13.0617 5.57594C13.083 5.60474 13.0986 5.63406 13.1093 5.66094C13.1306 5.71446 13.1253 5.74009 13.1263 5.71421L11.1276 5.64126ZM13.1038 7.50273C13.7137 7.5324 14.332 7.33841 14.7593 6.7913C15.1392 6.30493 15.2504 5.68278 15.2596 5.10187L13.2599 5.07C13.2569 5.25716 13.2372 5.3864 13.2151 5.47011C13.1931 5.55305 13.1739 5.57196 13.1831 5.56026C13.1972 5.54216 13.2253 5.51915 13.2561 5.50681C13.2802 5.49717 13.2703 5.50846 13.2009 5.50509L13.1038 7.50273ZM15.2597 5.07363L15.2128 1.26504L13.213 1.28965L13.2598 5.09824L15.2597 5.07363ZM13.9732 2.2482L15.8482 2.71109L16.3276 0.769382L14.4526 0.306492L13.9732 2.2482ZM15.088 1.72581L15.0353 5.38206L17.0351 5.41091L17.0878 1.75466L15.088 1.72581ZM15.0352 5.39648C15.0352 6.28427 14.8175 6.72166 14.5907 6.93874C14.369 7.15097 13.9425 7.33957 13.0914 7.28161L12.9555 9.27699C14.1122 9.35575 15.1915 9.13224 15.9737 8.38353C16.7508 7.63967 17.0352 6.56729 17.0352 5.39648H15.0352ZM13.0234 7.2793C12.2888 7.2793 11.9 7.10256 11.69 6.90819C11.4864 6.71971 11.2969 6.37203 11.2687 5.68912L9.27039 5.77181C9.31244 6.78813 9.61716 7.71486 10.3315 8.37599C11.0394 9.03123 11.9925 9.2793 13.0234 9.2793V7.2793ZM11.2695 5.72444L11.2461 1.83967L9.24611 1.85174L9.26955 5.7365L11.2695 5.72444ZM16.2344 2.9707H15.2344V4.00495L16.268 3.97014L16.2344 2.9707ZM16.2344 1.14258L16.1643 0.145039L15.2344 0.210396V1.14258H16.2344ZM22.8203 0.679688L23.82 0.706227L23.8492 -0.395094L22.7502 -0.317852L22.8203 0.679688ZM22.7676 2.66602L22.848 3.66278L23.7434 3.59057L23.7672 2.69255L22.7676 2.66602ZM20.2246 2.87109L20.1442 1.87433L19.1449 1.95492L19.2281 2.95405L20.2246 2.87109ZM20.6875 8.43164L20.8177 9.42313L21.7632 9.29898L21.6841 8.34868L20.6875 8.43164ZM18.3672 8.73633L17.3674 8.71427L17.3417 9.87957L18.4974 9.72782L18.3672 8.73633ZM18.4961 2.89453L19.4959 2.91659L19.5192 1.85951L18.4624 1.8951L18.4961 2.89453ZM17.2344 2.9707V1.14258H15.2344V2.9707H17.2344ZM16.3045 2.14012L22.8904 1.67723L22.7502 -0.317852L16.1643 0.145039L16.3045 2.14012ZM21.8207 0.653148L21.7679 2.63948L23.7672 2.69255L23.82 0.706227L21.8207 0.653148ZM22.6872 1.66925L20.1442 1.87433L20.305 3.86786L22.848 3.66278L22.6872 1.66925ZM19.2281 2.95405L19.6909 8.5146L21.6841 8.34868L21.2212 2.78814L19.2281 2.95405ZM20.5573 7.44015L18.237 7.74484L18.4974 9.72782L20.8177 9.42313L20.5573 7.44015ZM19.3669 8.75839L19.4959 2.91659L17.4963 2.87247L17.3674 8.71427L19.3669 8.75839ZM18.4624 1.8951L16.2007 1.97127L16.268 3.97014L18.5298 3.89396L18.4624 1.8951ZM22.375 2.9707H21.375V4.00495L22.4087 3.97014L22.375 2.9707ZM22.375 1.14258L22.3049 0.145039L21.375 0.210396V1.14258H22.375ZM28.9609 0.679688L29.9606 0.706227L29.9898 -0.395094L28.8908 -0.317852L28.9609 0.679688ZM28.9082 2.66602L28.9886 3.66278L29.884 3.59057L29.9079 2.69255L28.9082 2.66602ZM26.3652 2.87109L26.2849 1.87433L25.2855 1.95492L25.3687 2.95405L26.3652 2.87109ZM26.8281 8.43164L26.9583 9.42313L27.9038 9.29898L27.8247 8.34868L26.8281 8.43164ZM24.5078 8.73633L23.5081 8.71427L23.4823 9.87957L24.638 9.72782L24.5078 8.73633ZM24.6367 2.89453L25.6365 2.91659L25.6598 1.85951L24.6031 1.8951L24.6367 2.89453ZM23.375 2.9707V1.14258H21.375V2.9707H23.375ZM22.4451 2.14012L29.031 1.67723L28.8908 -0.317852L22.3049 0.145039L22.4451 2.14012ZM27.9613 0.653148L27.9086 2.63948L29.9079 2.69255L29.9606 0.706227L27.9613 0.653148ZM28.8278 1.66925L26.2849 1.87433L26.4456 3.86786L28.9886 3.66278L28.8278 1.66925ZM25.3687 2.95405L25.8316 8.5146L27.8247 8.34868L27.3618 2.78814L25.3687 2.95405ZM26.6979 7.44015L24.3776 7.74484L24.638 9.72782L26.9583 9.42313L26.6979 7.44015ZM25.5076 8.75839L25.6365 2.91659L23.637 2.87247L23.5081 8.71427L25.5076 8.75839ZM24.6031 1.8951L22.3413 1.97127L22.4087 3.97014L24.6704 3.89396L24.6031 1.8951ZM34.1289 4.88086L34.8499 4.18789L33.9951 3.29859L33.3018 4.3188L34.1289 4.88086ZM35.2891 6.08789L36.1103 6.65851L36.5778 5.98565L36.01 5.39492L35.2891 6.08789ZM32.1484 7.6875L32.1484 8.6875L32.1513 8.6875L32.1484 7.6875ZM28.8789 4.75195L27.8789 4.74465L27.8789 4.75429L27.879 4.76393L28.8789 4.75195ZM31.7852 1.53516L31.8031 0.535316L31.7931 0.535138L31.7831 0.535158L31.7852 1.53516ZM34.4922 3.51562L35.1197 4.29425L35.5991 3.9079L35.4699 3.30589L34.4922 3.51562ZM31.7148 5.75391L31.0873 4.97529L29.2161 6.48334L31.6048 6.74783L31.7148 5.75391ZM30.7949 5.09766L29.9888 5.68946L30.5971 6.51789L31.4085 5.88726L30.7949 5.09766ZM32.793 3.54492L33.4066 4.33452L34.3692 3.58648L33.4473 2.78875L32.793 3.54492ZM30.9531 3.38086L30.3924 2.55286L30.3254 2.5982L30.2667 2.65371L30.9531 3.38086ZM33.4079 5.57383L34.5681 6.78086L36.01 5.39492L34.8499 4.18789L33.4079 5.57383ZM34.4678 5.51727C33.9262 6.29683 33.1929 6.68449 32.1456 6.6875L32.1513 8.6875C33.8149 8.6827 35.1754 8.00395 36.1103 6.65851L34.4678 5.51727ZM32.1484 6.6875C31.2028 6.6875 30.6732 6.47105 30.3819 6.20952C30.1086 5.96407 29.8884 5.53718 29.8788 4.73998L27.879 4.76393C27.8929 5.92376 28.2293 6.96464 29.0458 7.6977C29.8444 8.41469 30.9378 8.6875 32.1484 8.6875V6.6875ZM29.8789 4.75925C29.8857 3.81888 30.1028 3.29646 30.3592 3.01267C30.5976 2.74883 31.0106 2.53673 31.7872 2.53515L31.7831 0.535158C30.6378 0.537486 29.6056 0.863478 28.8752 1.6719C28.1628 2.46037 27.8877 3.5444 27.8789 4.74465L29.8789 4.75925ZM31.7673 2.535C32.3986 2.5463 32.7832 2.68685 33.017 2.85785C33.235 3.01734 33.4173 3.27242 33.5144 3.72536L35.4699 3.30589C35.2898 2.46586 34.8822 1.74438 34.1979 1.24371C33.5293 0.754553 32.6991 0.551358 31.8031 0.535316L31.7673 2.535ZM33.8647 2.737L31.0873 4.97529L32.3423 6.53253L35.1197 4.29425L33.8647 2.737ZM31.6048 6.74783C32.9617 6.89808 34.1984 6.55777 34.956 5.44292L33.3018 4.3188C33.0985 4.61801 32.7258 4.85974 31.8249 4.75998L31.6048 6.74783ZM31.4085 5.88726L33.4066 4.33452L32.1793 2.75532L30.1813 4.30805L31.4085 5.88726ZM33.4473 2.78875C33.0327 2.42995 32.5366 2.16334 31.9648 2.11235C31.3832 2.06049 30.8501 2.24292 30.3924 2.55286L31.5139 4.20886C31.6734 4.10083 31.7555 4.10162 31.7872 4.10445C31.8286 4.10814 31.9438 4.13255 32.1386 4.30109L33.4473 2.78875ZM30.2667 2.65371C29.8707 3.02747 29.5541 3.51371 29.4988 4.11381C29.4435 4.71451 29.6664 5.25031 29.9888 5.68946L31.601 4.50585C31.4703 4.32781 31.493 4.26889 31.4904 4.29733C31.4878 4.32515 31.4769 4.26159 31.6396 4.10801L30.2667 2.65371ZM37.4277 4.69922L36.4277 4.69573L36.4233 5.96142L37.6557 5.67289L37.4277 4.69922ZM38.9219 3.65039L39.9216 3.67538L39.9229 3.62128L39.9184 3.56735L38.9219 3.65039ZM38.5996 3.08203L38.1233 3.96132L38.1342 3.96719L38.1451 3.97279L38.5996 3.08203ZM37.4336 3.01758L37.3347 2.02248L36.4367 2.11168L36.4336 3.01409L37.4336 3.01758ZM38.0723 6.25195L39.0183 5.9278L38.7105 5.02959L37.7975 5.29043L38.0723 6.25195ZM37.375 6.41602L37.1879 5.43368L36.434 5.57728L36.3777 6.34268L37.375 6.41602ZM37.1992 8.80664L37.1793 9.80644L38.127 9.8253L38.1965 8.87997L37.1992 8.80664ZM36.0215 8.7832L35.0234 8.84578L35.0811 9.76469L36.0016 9.78301L36.0215 8.7832ZM35.6699 3.17578L36.668 3.11321L36.605 2.10844L35.6006 2.17818L35.6699 3.17578ZM34.8262 3.23438L33.8265 3.25811L33.8513 4.30448L34.8954 4.23197L34.8262 3.23438ZM34.7793 1.25977L34.6911 0.26366L33.7573 0.34631L33.7796 1.2835L34.7793 1.25977ZM39.5078 1.61133L38.9247 2.42372L38.927 2.4254L39.5078 1.61133ZM40.4746 3.70312L41.4728 3.76388L41.4747 3.73145L41.4746 3.69896L40.4746 3.70312ZM39.1914 5.77734L38.6738 4.9217L37.7692 5.46891L38.3659 6.34173L39.1914 5.77734ZM40.7617 8.07422L41.1155 9.00956L42.305 8.55968L41.5872 7.50984L40.7617 8.07422ZM38.9336 8.76562L37.9876 9.08978L38.3221 10.066L39.2873 9.70096L38.9336 8.76562ZM37.6557 5.67289C38.2009 5.54524 38.7138 5.36364 39.1141 5.08264C39.5378 4.78521 39.9055 4.31768 39.9216 3.67538L37.9222 3.6254C37.9238 3.55904 37.9453 3.49558 37.9731 3.45089C37.9964 3.41349 38.0074 3.41595 37.965 3.44568C37.8673 3.51429 37.6389 3.62273 37.1998 3.72555L37.6557 5.67289ZM39.9184 3.56735C39.8764 3.06328 39.6491 2.49484 39.0541 2.19127L38.1451 3.97279C38.0639 3.93137 37.9953 3.86374 37.9538 3.7906C37.9183 3.72792 37.9222 3.6961 37.9253 3.73344L39.9184 3.56735ZM39.0759 2.20274C38.7852 2.04529 38.4622 2.00451 38.2227 1.99127C37.9578 1.97663 37.6573 1.99043 37.3347 2.02248L37.5324 4.01268C37.7997 3.98613 37.9885 3.98138 38.1123 3.98822C38.1732 3.99159 38.2041 3.99705 38.2124 3.99882C38.2238 4.00126 38.1856 3.99503 38.1233 3.96132L39.0759 2.20274ZM36.4336 3.01409L36.4277 4.69573L38.4277 4.7027L38.4336 3.02106L36.4336 3.01409ZM37.7975 5.29043C37.6104 5.3439 37.4074 5.39187 37.1879 5.43368L37.5621 7.39835C37.8348 7.34641 38.0966 7.285 38.347 7.21348L37.7975 5.29043ZM36.3777 6.34268L36.2019 8.73331L38.1965 8.87997L38.3723 6.48935L36.3777 6.34268ZM37.2191 7.80684L36.0414 7.7834L36.0016 9.78301L37.1793 9.80644L37.2191 7.80684ZM37.0195 8.72063L36.668 3.11321L34.6719 3.23835L35.0234 8.84578L37.0195 8.72063ZM35.6006 2.17818L34.7569 2.23678L34.8954 4.23197L35.7392 4.17338L35.6006 2.17818ZM35.8259 3.21064L35.779 1.23603L33.7796 1.2835L33.8265 3.25811L35.8259 3.21064ZM34.8675 2.25587C36.0991 2.14686 37.0621 2.12498 37.774 2.17791C38.5309 2.23419 38.8441 2.36585 38.9247 2.42371L40.0909 0.798944C39.5348 0.399771 38.7416 0.244329 37.9223 0.183417C37.058 0.11916 35.9751 0.150018 34.6911 0.26366L34.8675 2.25587ZM38.927 2.4254C39.2537 2.65842 39.4718 3.0216 39.4746 3.70729L41.4746 3.69896C41.4696 2.50965 41.0432 1.4783 40.0886 0.797259L38.927 2.4254ZM39.4765 3.64237C39.4426 4.19779 39.2069 4.59925 38.6738 4.9217L39.709 6.63299C40.7775 5.98668 41.3972 5.00533 41.4728 3.76388L39.4765 3.64237ZM38.3659 6.34173L39.9362 8.6386L41.5872 7.50984L40.0169 5.21296L38.3659 6.34173ZM40.408 7.13888L38.5798 7.83029L39.2873 9.70096L41.1155 9.00956L40.408 7.13888ZM39.8796 8.44147L39.0183 5.9278L37.1263 6.57611L37.9876 9.08978L39.8796 8.44147ZM40.3867 7.92188L39.3961 7.78555L39.2755 8.66178L40.1304 8.88847L40.3867 7.92188ZM41.2656 1.53516L41.1865 0.538295L40.3846 0.601979L40.275 1.39883L41.2656 1.53516ZM42.8887 1.40625L43.8798 1.27359L43.7541 0.334365L42.8095 0.409389L42.8887 1.40625ZM43.2988 4.4707L42.3077 4.60336L44.2749 4.68829L43.2988 4.4707ZM44.1191 0.791016L43.992 -0.200866L43.2958 -0.111615L43.1431 0.573427L44.1191 0.791016ZM45.7188 0.585938L46.7076 0.437077L46.562 -0.530353L45.5916 -0.405944L45.7188 0.585938ZM47.1133 9.84961L46.9914 10.8422L48.2981 11.0026L48.1021 9.70075L47.1133 9.84961ZM44.8223 9.56836L43.8308 9.69843L43.9315 10.4665L44.7004 10.5609L44.8223 9.56836ZM44.2012 4.83398L45.1927 4.70391L43.2569 4.50488L44.2012 4.83398ZM43.1699 7.79297L42.1969 8.02366L42.987 11.3563L44.1142 8.12207L43.1699 7.79297ZM42.5781 5.29688L43.5512 5.06618L41.5999 5.08915L42.5781 5.29688ZM41.9336 8.33203L41.6773 9.29863L42.6934 9.56805L42.9118 8.53975L41.9336 8.33203ZM41.3774 8.0582L42.2563 1.67149L40.275 1.39883L39.3961 7.78555L41.3774 8.0582ZM41.3448 2.53202L42.9678 2.40311L42.8095 0.409389L41.1865 0.538295L41.3448 2.53202ZM41.8975 1.53891L42.3077 4.60336L44.29 4.33804L43.8798 1.27359L41.8975 1.53891ZM44.2749 4.68829L45.0952 1.0086L43.1431 0.573427L42.3228 4.25311L44.2749 4.68829ZM44.2463 1.7829L45.8459 1.57782L45.5916 -0.405944L43.992 -0.200866L44.2463 1.7829ZM44.7299 0.734798L46.1244 9.99847L48.1021 9.70075L46.7076 0.437077L44.7299 0.734798ZM47.2351 8.85706L44.9441 8.57581L44.7004 10.5609L46.9914 10.8422L47.2351 8.85706ZM45.8138 9.43829L45.1927 4.70391L43.2097 4.96406L43.8308 9.69843L45.8138 9.43829ZM43.2569 4.50488L42.2256 7.46387L44.1142 8.12207L45.1455 5.16309L43.2569 4.50488ZM44.1429 7.56227L43.5512 5.06618L41.6051 5.52757L42.1969 8.02366L44.1429 7.56227ZM41.5999 5.08915L40.9554 8.12431L42.9118 8.53975L43.5563 5.5046L41.5999 5.08915ZM42.1899 7.36543L40.643 6.95528L40.1304 8.88847L41.6773 9.29863L42.1899 7.36543ZM52.1523 2.67188L51.4563 3.38985L51.4585 3.39203L52.1523 2.67188ZM52.1523 7.14844L52.8462 7.8686L52.8484 7.8664L52.1523 7.14844ZM47.5117 7.14844L46.8156 7.86641L46.8179 7.8686L47.5117 7.14844ZM47.5117 2.67188L48.2055 3.39204L48.2078 3.38984L47.5117 2.67188ZM51.9414 4.18359L52.9303 4.03525L50.9633 3.97549L51.9414 4.18359ZM51.666 4.66406L52.3514 5.39226L52.3532 5.39053L51.666 4.66406ZM50.2363 4.66992L49.5438 5.39131L49.5512 5.39837L49.5586 5.40528L50.2363 4.66992ZM50.2363 3.32812L49.5586 2.59273L49.5514 2.5995L50.2363 3.32812ZM51.1035 3.06445L50.9391 4.05085L51.5572 2.17329L51.1035 3.06445ZM49.2754 3.35156L49.9733 4.06779L49.9734 4.06768L49.2754 3.35156ZM49.2754 5.50781L48.5775 6.22406L48.5821 6.22847L49.2754 5.50781ZM51.4961 5.50781L50.8028 4.78714L50.7982 4.79158L51.4961 5.50781ZM49.832 2.74023C50.483 2.74023 51.0054 2.95277 51.4563 3.38984L52.8484 1.95391C52.018 1.14879 50.9936 0.740234 49.832 0.740234V2.74023ZM51.4585 3.39203C51.9082 3.82523 52.1133 4.31131 52.1133 4.9043H54.1133C54.1133 3.7551 53.6778 2.75289 52.8462 1.95172L51.4585 3.39203ZM52.1133 4.9043C52.1133 5.50275 51.9069 5.99353 51.4563 6.43047L52.8484 7.8664C53.679 7.06115 54.1133 6.05584 54.1133 4.9043H52.1133ZM51.4585 6.42828C51.0081 6.86221 50.4849 7.07422 49.832 7.07422V9.07422C50.9916 9.07422 52.0153 8.66904 52.8462 7.8686L51.4585 6.42828ZM49.832 7.07422C49.1791 7.07422 48.6559 6.86221 48.2055 6.42828L46.8179 7.8686C47.6487 8.66904 48.6724 9.07422 49.832 9.07422V7.07422ZM48.2078 6.43047C47.7571 5.99353 47.5508 5.50275 47.5508 4.9043H45.5508C45.5508 6.05584 45.9851 7.06115 46.8156 7.8664L48.2078 6.43047ZM47.5508 4.9043C47.5508 4.31131 47.7559 3.82523 48.2055 3.39203L46.8179 1.95172C45.9863 2.75289 45.5508 3.7551 45.5508 4.9043H47.5508ZM48.2078 3.38984C48.6586 2.95277 49.1811 2.74023 49.832 2.74023V0.740234C48.6705 0.740234 47.6461 1.14879 46.8156 1.95391L48.2078 3.38984ZM50.9633 3.97549C50.964 3.97215 50.9653 3.96716 50.9676 3.96112C50.97 3.95506 50.9727 3.94926 50.9757 3.94413C50.982 3.93308 50.9856 3.9312 50.9788 3.93759L52.3532 5.39053C52.6357 5.12332 52.8357 4.78576 52.9195 4.3917L50.9633 3.97549ZM50.9807 3.93586C50.9732 3.9429 50.969 3.94559 50.9685 3.94593C50.9681 3.94619 50.9694 3.94537 50.9718 3.94443C50.9741 3.94351 50.9749 3.94351 50.973 3.94386C50.9709 3.94425 50.964 3.94531 50.9512 3.94531V5.94531C51.4793 5.94531 51.9638 5.75701 52.3514 5.39226L50.9807 3.93586ZM50.9512 3.94531C50.9372 3.94531 50.9291 3.94417 50.9258 3.94358C50.9226 3.94302 50.9224 3.94272 50.9239 3.94332C50.9255 3.94393 50.9263 3.94447 50.9258 3.94411C50.9251 3.94369 50.9211 3.94112 50.914 3.93457L49.5586 5.40528C49.9473 5.76346 50.4293 5.94531 50.9512 5.94531V3.94531ZM50.9289 3.94853C50.9221 3.942 50.9211 3.93992 50.9232 3.94293C50.9255 3.94612 50.9296 3.95264 50.9337 3.96211C50.9378 3.97164 50.9406 3.98089 50.9421 3.98855C50.9436 3.99604 50.9434 3.99904 50.9434 3.99609H48.9434C48.9434 4.54049 49.1597 5.02255 49.5438 5.39131L50.9289 3.94853ZM50.9434 3.99609C50.9434 3.99313 50.9436 3.99653 50.9419 4.00477C50.9402 4.0132 50.9372 4.02358 50.9324 4.03447C50.9276 4.04533 50.9226 4.05334 50.9192 4.05807C50.916 4.06259 50.9157 4.06194 50.9212 4.05675L49.5514 2.5995C49.1606 2.96691 48.9434 3.45096 48.9434 3.99609H50.9434ZM50.914 4.06348C50.9211 4.05693 50.9251 4.05436 50.9258 4.05394C50.9263 4.05358 50.9255 4.05412 50.9239 4.05473C50.9224 4.05533 50.9226 4.05503 50.9258 4.05447C50.9291 4.05388 50.9372 4.05273 50.9512 4.05273V2.05273C50.4293 2.05273 49.9473 2.23459 49.5586 2.59277L50.914 4.06348ZM50.9512 4.05273C50.9588 4.05273 50.954 4.05332 50.9391 4.05085L51.2679 2.07806C51.1593 2.05996 51.0529 2.05273 50.9512 2.05273V4.05273ZM51.5572 2.17329C51.19 1.98637 50.7943 1.90039 50.3887 1.90039V3.90039C50.5065 3.90039 50.5873 3.92378 50.6498 3.95562L51.5572 2.17329ZM50.3887 1.90039C49.6961 1.90039 49.074 2.15139 48.5774 2.63545L49.9734 4.06768C50.0939 3.95017 50.214 3.90039 50.3887 3.90039V1.90039ZM48.5775 2.63533C48.0815 3.11866 47.8184 3.73556 47.8184 4.42969H49.8184C49.8184 4.28007 49.8599 4.17822 49.9733 4.06779L48.5775 2.63533ZM47.8184 4.42969C47.8184 5.12382 48.0815 5.74072 48.5775 6.22404L49.9733 4.79158C49.8599 4.68116 49.8184 4.57931 49.8184 4.42969H47.8184ZM48.5821 6.22847C49.0796 6.70707 49.7002 6.95312 50.3887 6.95312V4.95312C50.21 4.95312 50.0884 4.9023 49.9687 4.78715L48.5821 6.22847ZM50.3887 6.95312C51.0774 6.95312 51.6986 6.70674 52.194 6.22404L50.7982 4.79158C50.6843 4.90264 50.5672 4.95312 50.3887 4.95312V6.95312ZM52.1894 6.22847C52.6906 5.74627 52.959 5.12807 52.959 4.42969H50.959C50.959 4.57505 50.9188 4.67561 50.8028 4.78715L52.1894 6.22847ZM52.959 4.42969C52.959 4.29838 52.95 4.16654 52.9303 4.03525L50.9525 4.33193C50.9562 4.35689 50.959 4.38912 50.959 4.42969H52.959ZM52.9375 8.33203L51.9378 8.30697L51.9146 9.23255L52.8357 9.32683L52.9375 8.33203ZM53.0898 2.25586L54.0895 2.28092L54.114 1.30643L53.1404 1.25714L53.0898 2.25586ZM52.627 2.23242H51.627V3.18307L52.5764 3.23114L52.627 2.23242ZM52.627 1.22461L52.6677 0.225441L51.627 0.18296V1.22461H52.627ZM54.6367 1.30664L55.5746 0.959778L55.3434 0.334654L54.6775 0.307473L54.6367 1.30664ZM56.1016 5.26758L55.1636 5.61444L57.099 5.33883L56.1016 5.26758ZM56.4121 0.919922L56.2972 -0.0734546L55.4737 0.0218L55.4147 0.848675L56.4121 0.919922ZM57.9824 0.738281L58.9805 0.799714L59.0539 -0.392326L57.8675 -0.255095L57.9824 0.738281ZM57.4375 9.5918L57.2555 10.5751L58.3662 10.7806L58.4356 9.65323L57.4375 9.5918ZM55.791 9.28711L54.8468 9.61645L55.0381 10.1647L55.6091 10.2704L55.791 9.28711ZM54.4258 5.37305L55.37 5.0437L53.4258 5.37305H54.4258ZM54.4258 8.48438L54.324 9.47918L55.4258 9.59196V8.48438H54.4258ZM53.9372 8.3571L54.0895 2.28092L52.0902 2.23079L51.9378 8.30697L53.9372 8.3571ZM53.1404 1.25714L52.6775 1.2337L52.5764 3.23114L53.0393 3.25458L53.1404 1.25714ZM53.627 2.23242V1.22461H51.627V2.23242H53.627ZM52.5862 2.22378L54.5959 2.30581L54.6775 0.307473L52.6677 0.225441L52.5862 2.22378ZM53.6988 1.6535L55.1636 5.61444L57.0395 4.92072L55.5746 0.959778L53.6988 1.6535ZM57.099 5.33883L57.4096 0.991169L55.4147 0.848675L55.1041 5.19633L57.099 5.33883ZM56.527 1.9133L58.0973 1.73166L57.8675 -0.255095L56.2972 -0.0734546L56.527 1.9133ZM56.9843 0.676849L56.4394 9.53036L58.4356 9.65323L58.9805 0.799714L56.9843 0.676849ZM57.6195 8.60849L55.973 8.3038L55.6091 10.2704L57.2555 10.5751L57.6195 8.60849ZM56.7352 8.95777L55.37 5.0437L53.4816 5.70239L54.8468 9.61645L56.7352 8.95777ZM53.4258 5.37305V8.48438H55.4258V5.37305H53.4258ZM54.5276 7.48957L53.0393 7.33723L52.8357 9.32683L54.324 9.47918L54.5276 7.48957Z" fill="#396BBA" mask="url(#path-1-outside-1_16_73)"/>
</svg>
