<svg width="61" height="61" viewBox="0 0 61 61" fill="none" xmlns="http://www.w3.org/2000/svg">
<g clip-path="url(#clip0_11_14)">
<path d="M57.893 18.5582C56.3823 14.9858 54.22 11.7769 51.466 9.02209C48.7102 6.26811 45.5005 4.10476 41.9299 2.59417C38.2313 1.02955 34.3018 0.235703 30.2515 0.235703C26.2021 0.235703 22.2728 1.02944 18.574 2.59417C15.0017 4.10476 11.7928 6.26822 9.03787 9.02209C6.284 11.7769 4.12066 14.9858 2.60995 18.5582C1.04545 22.2569 0.251598 26.1863 0.251598 30.2356C0.251598 34.2858 1.04533 38.2153 2.61007 41.914C4.12066 45.4846 6.28412 48.6943 9.03799 51.4483C11.7928 54.2041 15.0017 56.3664 18.5742 57.877C22.2729 59.4408 26.2022 60.2355 30.2517 60.2355C34.3019 60.2355 38.2314 59.4408 41.93 57.877C45.5007 56.3663 48.7103 54.204 51.4661 51.4483C54.2201 48.6943 56.3824 45.4845 57.8931 41.914C59.4569 38.2153 60.2516 34.2858 60.2516 30.2356C60.2515 26.1863 59.4568 22.2569 57.893 18.5582Z" fill="#ED5564"/>
<path d="M0.26355 31.0779C0.366092 34.8296 1.15338 38.4717 2.61006 41.9139C4.12066 45.4846 6.28412 48.6943 9.03799 51.4483C11.7928 54.2041 15.0017 56.3664 18.5742 57.877C22.2729 59.4408 26.2022 60.2355 30.2517 60.2355C34.3019 60.2355 38.2314 59.4408 41.93 57.877C45.5007 56.3663 48.7103 54.204 51.4661 51.4483C54.2201 48.6943 56.3824 45.4845 57.8931 41.9139C59.3507 38.4717 60.138 34.8296 60.2406 31.0779H0.26355Z" fill="#E6E9ED"/>
<path d="M60.1086 33.191C60.2038 32.2131 60.2515 31.228 60.2515 30.2356C60.2515 29.1205 60.191 28.0145 60.0721 26.9204C58.5815 27.1502 56.441 27.4497 53.744 27.7471C48.6241 28.312 40.3955 28.9858 30.2515 28.9858C20.1084 28.9858 11.8788 28.312 6.76003 27.7471C4.06206 27.4495 1.92239 27.1502 0.431955 26.9204C0.312069 28.0145 0.251598 29.1206 0.251598 30.2356C0.251598 31.228 0.299178 32.2132 0.394454 33.191C5.26139 33.9234 15.984 35.2343 30.2515 35.2343C44.5191 35.2343 55.2416 33.9234 60.1086 33.191Z" fill="#434A54"/>
<path d="M36.5027 31.4852C36.5027 34.9376 33.7029 37.7355 30.2515 37.7355C26.8 37.7355 24.0013 34.9376 24.0013 31.4852C24.0013 28.0336 26.8 25.2358 30.2515 25.2358C33.7029 25.2359 36.5027 28.0337 36.5027 31.4852Z" fill="#E6E9ED"/>
<path d="M30.2515 20.2354C24.0479 20.2354 19.0016 25.2827 19.0016 31.4854C19.0016 37.688 24.048 42.7343 30.2515 42.7343C36.455 42.7343 41.5014 37.6879 41.5014 31.4854C41.5014 25.2827 36.4552 20.2354 30.2515 20.2354ZM30.2515 36.4868C27.495 36.4868 25.2518 34.2419 25.2518 31.4854C25.2518 28.7287 27.4949 26.4856 30.2515 26.4856C33.0092 26.4856 35.2502 28.7287 35.2502 31.4854C35.2502 34.2418 33.0092 36.4868 30.2515 36.4868Z" fill="#434A54"/>
<path opacity="0.2" d="M57.893 18.5582C56.3823 14.9858 54.22 11.7769 51.466 9.02209C48.7102 6.26811 45.5005 4.10476 41.9299 2.59417C38.2313 1.02955 34.3018 0.235703 30.2515 0.235703C29.8332 0.235703 29.4166 0.244843 29.0018 0.261367C32.61 0.407856 36.1109 1.19069 39.4288 2.59417C43.0029 4.10476 46.211 6.26822 48.9647 9.02209C51.7187 11.7769 53.8831 14.9858 55.3934 18.5582C56.959 22.2569 57.75 26.1863 57.75 30.2358C57.75 34.2859 56.959 38.2154 55.3934 41.9141C53.883 45.4848 51.7187 48.6944 48.9647 51.4484C46.211 54.2042 43.0029 56.3665 39.4288 57.8771C36.1109 59.2798 32.6099 60.0634 29.0018 60.2099C29.4166 60.2264 29.8331 60.2356 30.2515 60.2356C34.3018 60.2356 38.2313 59.4409 41.9299 57.8771C45.5005 56.3664 48.7102 54.2041 51.466 51.4484C54.22 48.6944 56.3823 45.4846 57.893 41.9141C59.4568 38.2154 60.2515 34.2859 60.2515 30.2358C60.2515 26.1863 59.4568 22.2569 57.893 18.5582Z" fill="white"/>
<path opacity="0.1" d="M2.61007 41.914C4.12066 45.4846 6.28412 48.6943 9.03799 51.4483C11.7928 54.2041 15.0017 56.3664 18.5742 57.877C22.2729 59.4408 26.2022 60.2355 30.2517 60.2355C30.67 60.2355 31.0866 60.2263 31.5014 60.2098C27.8932 60.0633 24.3914 59.2795 21.0735 57.877C17.5012 56.3663 14.2932 54.204 11.5384 51.4483C8.78357 48.6943 6.62104 45.4845 5.10951 41.914C3.54478 38.2154 2.75198 34.2859 2.75198 30.2356C2.75198 26.1862 3.54478 22.2568 5.1094 18.558C6.62093 14.9857 8.78345 11.7767 11.5383 9.02291C14.2931 6.26811 17.501 4.10464 21.0734 2.59405C24.3913 1.19057 27.8931 0.407739 31.5013 0.26125C31.0865 0.244843 30.6699 0.235703 30.2515 0.235703C26.2021 0.235703 22.2728 1.02944 18.574 2.59417C15.0017 4.10476 11.7928 6.26822 9.03787 9.02303C6.284 11.7769 4.12066 14.9858 2.60995 18.5582C1.04545 22.2569 0.251598 26.1863 0.251598 30.2356C0.251598 34.2858 1.04545 38.2154 2.61007 41.914Z" fill="black"/>
</g>
<defs>
<clipPath id="clip0_11_14">
<rect width="60" height="60" fill="white" transform="translate(0.251598 0.23558)"/>
</clipPath>
</defs>
</svg>
