<svg width="61" height="60" viewBox="0 0 61 60" fill="none" xmlns="http://www.w3.org/2000/svg">
<path d="M25.5 43.75L30.5 48.75L25.5 53.75" stroke="black" stroke-width="5" stroke-linecap="round" stroke-linejoin="round"/>
<path d="M40.5 47.7099C49.3295 45.781 56.75 41.3757 56.75 36.25C56.75 33.4355 54.8895 30.8381 51.75 28.7487M30.5 48.75C16.6929 48.75 4.25 43.1535 4.25 36.25C4.25 33.4355 6.11045 30.8381 9.25 28.7487" stroke="black" stroke-width="5" stroke-linecap="round" stroke-linejoin="round"/>
<path fill-rule="evenodd" clip-rule="evenodd" d="M16.75 12.5V31.25H44.25V12.5H36.75L34.25 8.75H26.75L24.25 12.5H16.75ZM38 20.5C38 24.6423 34.6423 28 30.5 28C26.3577 28 23 24.6423 23 20.5C23 16.3577 26.3577 13 30.5 13C34.6423 13 38 16.3577 38 20.5Z" fill="black"/>
<path d="M16.75 31.25H14.25C14.25 32.6307 15.3693 33.75 16.75 33.75V31.25ZM16.75 12.5V10C15.3693 10 14.25 11.1193 14.25 12.5H16.75ZM44.25 31.25V33.75C45.6307 33.75 46.75 32.6307 46.75 31.25H44.25ZM44.25 12.5H46.75C46.75 11.1193 45.6307 10 44.25 10V12.5ZM36.75 12.5L34.6699 13.8868C35.1335 14.5822 35.9141 15 36.75 15V12.5ZM34.25 8.75L36.3301 7.36325C35.8665 6.66775 35.0859 6.25 34.25 6.25V8.75ZM26.75 8.75V6.25C25.9141 6.25 25.1335 6.66775 24.6699 7.36325L26.75 8.75ZM24.25 12.5V15C25.0859 15 25.8665 14.5822 26.3301 13.8868L24.25 12.5ZM19.25 31.25V12.5H14.25V31.25H19.25ZM44.25 28.75H16.75V33.75H44.25V28.75ZM41.75 12.5V31.25H46.75V12.5H41.75ZM36.75 15H44.25V10H36.75V15ZM32.1699 10.1368L34.6699 13.8868L38.8301 11.1132L36.3301 7.36325L32.1699 10.1368ZM26.75 11.25H34.25V6.25H26.75V11.25ZM26.3301 13.8868L28.8301 10.1368L24.6699 7.36325L22.1699 11.1132L26.3301 13.8868ZM16.75 15H24.25V10H16.75V15ZM30.5 30.5C36.023 30.5 40.5 26.023 40.5 20.5H35.5C35.5 23.2615 33.2615 25.5 30.5 25.5V30.5ZM20.5 20.5C20.5 26.023 24.977 30.5 30.5 30.5V25.5C27.7385 25.5 25.5 23.2615 25.5 20.5H20.5ZM30.5 10.5C24.977 10.5 20.5 14.977 20.5 20.5H25.5C25.5 17.7385 27.7385 15.5 30.5 15.5V10.5ZM40.5 20.5C40.5 14.977 36.023 10.5 30.5 10.5V15.5C33.2615 15.5 35.5 17.7385 35.5 20.5H40.5Z" fill="black"/>
</svg>
