<svg width="25" height="25" viewBox="0 0 25 25" fill="none" xmlns="http://www.w3.org/2000/svg">
<path d="M23.6005 21.2806L22.0769 9.73618C21.8258 8.18218 20.4845 7.04004 18.9101 7.04004H16.1185C14.6723 7.04004 14.4665 6.34487 14.4665 5.53208C14.4665 4.69976 14.7038 4.40078 15.2798 4.32095C16.3003 4.19551 17.0914 3.32676 17.0914 2.27222V2.06567C17.0915 0.924756 16.1667 0 15.0258 0H9.97422C8.83335 0 7.9086 0.924756 7.9086 2.06563V2.27217C7.9086 3.32671 8.69966 4.19541 9.72012 4.3209C10.2958 4.40073 10.5336 4.69971 10.5336 5.53203C10.5336 6.34482 10.3277 7.03999 8.88155 7.03999H6.08994C4.51553 7.03999 3.17422 8.18213 2.92315 9.73613L1.39956 21.2806C1.24961 22.2088 1.51455 23.1561 2.12383 23.8717C2.73306 24.5877 3.62632 25 4.56607 25H20.4339C21.3736 25 22.2665 24.5877 22.8762 23.8717C23.4856 23.1562 23.7504 22.2088 23.6005 21.2806Z" fill="black"/>
</svg>
