<svg width="25" height="25" viewBox="0 0 25 25" fill="none" xmlns="http://www.w3.org/2000/svg">
<circle cx="12.5" cy="12.5" r="11.5" stroke="black" stroke-width="2"/>
<path d="M9.58 9L10.29 11.85H10.33L11.04 9H12.42L11.46 12.34L12.49 16H11.07L10.33 13H10.29L9.55 16H8.13L9.16 12.34L8.2 9H9.58ZM14.4491 10.2V12.7H15.3391C15.7058 12.4 15.8891 11.96 15.8891 11.38C15.8891 11.1333 15.8391 10.9 15.7391 10.68C15.6458 10.46 15.5325 10.3 15.3991 10.2H14.4491ZM13.0991 16V9H15.8091C16.2625 9.2 16.6191 9.50667 16.8791 9.92C17.1458 10.3333 17.2791 10.8167 17.2791 11.37C17.2791 11.9167 17.1425 12.4233 16.8691 12.89C16.5958 13.3567 16.1925 13.6867 15.6591 13.88H14.4491V16H13.0991Z" fill="black"/>
</svg>
